# This file uses centimeters as units for non-parametric coordinates.

mtllib stone.mtl
g default
v -0.699070 0.179833 -3.223688
v 0.029168 0.047976 -3.087200
v -0.576864 0.488861 -3.219966
v -0.453780 0.578100 -3.348239
v -0.632309 0.627135 -3.807644
v 0.139782 0.461385 -3.811135
v -0.961622 0.417003 -3.896125
v -0.192320 0.567626 -3.295576
v 0.011629 0.562330 -3.682862
v -0.428977 0.608701 -3.679370
v -0.843798 0.091212 -3.814007
v 0.205023 -0.008186 -3.964833
v -0.053405 -0.094834 -3.169318
v -0.616952 0.037409 -3.305806
v 0.060178 0.564542 -3.459759
v 0.198773 -0.107919 -3.420600
v 0.090182 0.491149 -3.338348
v 0.281000 0.034505 -3.411669
v -0.158738 0.365273 -3.045111
v 0.092872 0.365044 -3.095640
v -0.168410 0.506475 -3.202830
vt 0.375000 0.000000
vt 0.625000 0.000000
vt 0.387317 0.247168
vt 0.423456 0.277157
vt 0.369656 0.531180
vt 0.597669 0.571701
vt 0.375000 0.750000
vt 0.375000 1.000000
vt 0.625000 1.000000
vt 0.873429 0.249270
vt 0.125000 0.000000
vt 0.136342 0.250165
vt 0.625000 0.250000
vt 0.625000 0.500000
vt 0.375000 0.500000
vt 0.375000 0.750000
vt 0.625000 0.750000
vt 0.625000 1.000000
vt 0.375000 1.000000
vt 0.625000 0.370244
vt 0.625000 0.889278
vt 0.625000 0.368626
vt 0.743626 0.250000
vt 0.625000 0.889171
vt 0.735829 0.000000
vt 0.539201 0.117988
vt 0.634529 0.084575
vt 0.531363 0.326129
vt 0.594875 0.262617
vn -0.281353 -0.099326 0.954450
vn -0.281353 -0.099326 0.954450
vn -0.274926 -0.059078 0.959649
vn -0.250574 0.073652 0.965292
vn 0.021030 0.995391 0.093565
vn 0.068351 0.996926 0.038304
vn 0.067157 0.996952 0.039707
vn 0.077714 0.996602 0.027297
vn 0.077714 0.996602 0.027297
vn 0.061077 0.304529 -0.950543
vn 0.061077 0.304529 -0.950543
vn 0.061077 0.304529 -0.950543
vn -0.118468 -0.976452 -0.180299
vn -0.151663 -0.981265 -0.118813
vn -0.159248 -0.981694 -0.104484
vn -0.183097 -0.981340 -0.058720
vn -0.183097 -0.981340 -0.058720
vn 0.854938 0.397474 0.333309
vn 0.931039 0.218346 0.292388
vn 0.924331 0.374467 0.073399
vn -0.735264 0.576032 0.357174
vn -0.735264 0.576032 0.357174
vn -0.735264 0.576032 0.357174
vn -0.735265 0.576032 0.357174
vn 0.757283 0.624690 0.190486
vn 0.461983 0.833373 0.303415
vn 0.645801 0.763433 0.010485
vn 0.629187 0.777066 0.017090
vn 0.159837 0.925126 -0.344375
vn 0.159837 0.925126 -0.344375
vn 0.159837 0.925126 -0.344375
vn 0.159837 0.925126 -0.344375
vn -0.208385 0.960675 0.183521
vn -0.208385 0.960675 0.183521
vn -0.208385 0.960675 0.183521
vn -0.208385 0.960675 0.183521
vn 0.060193 0.318056 -0.946159
vn 0.027411 0.232322 -0.972253
vn -0.068798 -0.027619 -0.997248
vn -0.163404 -0.296287 -0.941017
vn 0.971896 0.183358 -0.147641
vn 0.964975 -0.236310 0.113931
vn 0.981090 0.128573 -0.144676
vn 0.749797 -0.555552 0.359398
vn -0.274189 -0.479537 0.833586
vn -0.274189 -0.479537 0.833586
vn -0.274189 -0.479537 0.833586
vn -0.274189 -0.479537 0.833586
vn -0.884572 -0.377740 0.273577
vn -0.884572 -0.377740 0.273577
vn -0.884572 -0.377740 0.273577
vn -0.884572 -0.377740 0.273577
vn 0.125588 0.846267 0.517744
vn 0.172306 0.842210 0.510874
vn 0.089509 0.800141 0.593096
vn 0.187829 0.634214 0.749995
vn 0.730612 0.318792 0.603803
vn 0.620756 -0.540070 0.568318
vn 0.620756 -0.540070 0.568318
vn 0.002718 0.819662 0.572841
vn 0.850460 0.101412 0.516171
vn -0.080457 0.822502 0.563043
vn -0.154901 0.731309 0.664223
s 1
g pCube2
usemtl initialShadingGroup
f 1/1/1 2/2/2 19/26/3 3/3/4
s 2
f 4/4/5 8/13/6 10/15/7
f 9/14/8 10/15/7 8/13/6 15/20/9
s off
f 5/5/10 6/6/11 7/7/12
s 3
f 12/17/13 16/21/14 11/16/15
f 14/19/16 11/16/15 16/21/14 13/18/17
s 4
f 17/23/18 18/25/19 6/10/20
s off
f 5/12/21 7/11/22 1/1/23 3/3/24
s 5
f 15/20/25 17/22/26 9/14/27
f 9/14/27 17/22/26 6/6/28
s off
f 9/14/29 6/6/30 5/5/31 10/15/32
f 5/5/33 3/3/34 4/4/35 10/15/36
s 6
f 6/6/37 12/17/38 7/7/39
f 7/7/39 12/17/38 11/16/40
s 7
f 6/6/41 18/24/42 12/17/43
f 12/17/43 18/24/42 16/21/44
s off
f 2/9/45 1/8/46 14/19/47 13/18/48
f 14/19/49 1/8/50 7/7/51 11/16/52
s 5
f 8/13/53 21/28/54 17/22/26
f 8/13/53 17/22/26 15/20/25
s 4
f 17/23/18 21/29/55 19/26/56 20/27/57
s 7
f 16/21/44 18/24/42 2/9/58 13/18/59
s 1
f 3/3/4 19/26/3 4/4/60
s 4
f 2/2/61 20/27/57 19/26/56
f 2/2/61 18/25/19 17/23/18 20/27/57
s 5
f 4/4/62 21/28/54 8/13/53
s 4
f 19/26/56 21/29/55 4/4/63
